<mxfile host="app.diagrams.net" agent="Mozilla/5.0 (Windows NT 10.0; Win64; x64) AppleWebKit/537.36 (KHTML, like Gecko) Chrome/135.0.0.0 Safari/537.36" version="26.2.12">
  <diagram name="第 1 页" id="cV_gcN_X0pGUUscdExKk">
    <mxGraphModel dx="2320" dy="2382" grid="1" gridSize="10" guides="1" tooltips="1" connect="1" arrows="1" fold="1" page="1" pageScale="1" pageWidth="827" pageHeight="1169" math="0" shadow="0">
      <root>
        <mxCell id="0" />
        <mxCell id="1" parent="0" />
        <mxCell id="2ej9m6dImVk6T2aK4AlW-9" value="" style="rounded=0;whiteSpace=wrap;html=1;" vertex="1" parent="1">
          <mxGeometry x="100" y="60" width="610" height="370" as="geometry" />
        </mxCell>
        <mxCell id="2ej9m6dImVk6T2aK4AlW-2" value="" style="rounded=0;whiteSpace=wrap;html=1;fillColor=#dae8fc;strokeColor=#6c8ebf;" vertex="1" parent="1">
          <mxGeometry x="100" y="60" width="90" height="370" as="geometry" />
        </mxCell>
        <mxCell id="2ej9m6dImVk6T2aK4AlW-15" value="" style="group;fillColor=#dae8fc;strokeColor=#6c8ebf;" vertex="1" connectable="0" parent="1">
          <mxGeometry x="100" y="60" width="90" height="270" as="geometry" />
        </mxCell>
        <mxCell id="2ej9m6dImVk6T2aK4AlW-3" value="党建新闻" style="rounded=0;whiteSpace=wrap;html=1;fillColor=#647687;strokeColor=#314354;fontColor=#ffffff;" vertex="1" parent="2ej9m6dImVk6T2aK4AlW-15">
          <mxGeometry width="90" height="30" as="geometry" />
        </mxCell>
        <mxCell id="2ej9m6dImVk6T2aK4AlW-4" value="支部风采" style="rounded=0;whiteSpace=wrap;html=1;" vertex="1" parent="2ej9m6dImVk6T2aK4AlW-15">
          <mxGeometry y="30" width="90" height="30" as="geometry" />
        </mxCell>
        <mxCell id="2ej9m6dImVk6T2aK4AlW-5" value="热门问题" style="rounded=0;whiteSpace=wrap;html=1;" vertex="1" parent="2ej9m6dImVk6T2aK4AlW-15">
          <mxGeometry y="60" width="90" height="30" as="geometry" />
        </mxCell>
        <mxCell id="2ej9m6dImVk6T2aK4AlW-6" value="支部事件" style="rounded=0;whiteSpace=wrap;html=1;" vertex="1" parent="2ej9m6dImVk6T2aK4AlW-15">
          <mxGeometry y="133" width="90" height="30" as="geometry" />
        </mxCell>
        <mxCell id="2ej9m6dImVk6T2aK4AlW-7" value="队伍建设" style="rounded=0;whiteSpace=wrap;html=1;" vertex="1" parent="2ej9m6dImVk6T2aK4AlW-15">
          <mxGeometry y="103" width="90" height="30" as="geometry" />
        </mxCell>
        <mxCell id="2ej9m6dImVk6T2aK4AlW-10" value="活动进度" style="rounded=0;whiteSpace=wrap;html=1;" vertex="1" parent="2ej9m6dImVk6T2aK4AlW-15">
          <mxGeometry y="163" width="90" height="30" as="geometry" />
        </mxCell>
        <mxCell id="2ej9m6dImVk6T2aK4AlW-11" value="工作计划" style="rounded=0;whiteSpace=wrap;html=1;" vertex="1" parent="2ej9m6dImVk6T2aK4AlW-15">
          <mxGeometry y="193" width="90" height="30" as="geometry" />
        </mxCell>
        <mxCell id="2ej9m6dImVk6T2aK4AlW-12" value="党费缴纳" style="rounded=0;whiteSpace=wrap;html=1;" vertex="1" parent="2ej9m6dImVk6T2aK4AlW-15">
          <mxGeometry y="241" width="90" height="30" as="geometry" />
        </mxCell>
        <mxCell id="2ej9m6dImVk6T2aK4AlW-13" value="纪检信箱" style="rounded=0;whiteSpace=wrap;html=1;" vertex="1" parent="2ej9m6dImVk6T2aK4AlW-15">
          <mxGeometry y="271" width="90" height="30" as="geometry" />
        </mxCell>
        <mxCell id="2ej9m6dImVk6T2aK4AlW-16" value="" style="rounded=0;whiteSpace=wrap;html=1;" vertex="1" parent="1">
          <mxGeometry x="190" y="94" width="400" height="20" as="geometry" />
        </mxCell>
        <mxCell id="2ej9m6dImVk6T2aK4AlW-17" value="ID&amp;nbsp; &amp;nbsp;标题&amp;nbsp; &amp;nbsp;发表时间&amp;nbsp; 来源&amp;nbsp; &amp;nbsp; 是否置顶&amp;nbsp; 发布状态&amp;nbsp; &amp;nbsp;操作（编辑 删除 发布 下架）" style="rounded=0;whiteSpace=wrap;html=1;fillColor=#e1d5e7;strokeColor=#9673a6;" vertex="1" parent="1">
          <mxGeometry x="190" y="94" width="520" height="20" as="geometry" />
        </mxCell>
        <mxCell id="2ej9m6dImVk6T2aK4AlW-31" value="新闻1 ……" style="rounded=0;whiteSpace=wrap;html=1;" vertex="1" parent="1">
          <mxGeometry x="190" y="114" width="520" height="20" as="geometry" />
        </mxCell>
        <mxCell id="2ej9m6dImVk6T2aK4AlW-32" value="新闻2 ……" style="rounded=0;whiteSpace=wrap;html=1;" vertex="1" parent="1">
          <mxGeometry x="190" y="134" width="520" height="20" as="geometry" />
        </mxCell>
        <mxCell id="2ej9m6dImVk6T2aK4AlW-33" value="新闻3 ……" style="rounded=0;whiteSpace=wrap;html=1;" vertex="1" parent="1">
          <mxGeometry x="190" y="154" width="520" height="20" as="geometry" />
        </mxCell>
        <mxCell id="2ej9m6dImVk6T2aK4AlW-34" value="接口1：点击&quot;党建新闻&quot;，查询所有新闻" style="rounded=1;whiteSpace=wrap;html=1;arcSize=48;fontSize=14;" vertex="1" parent="1">
          <mxGeometry x="150" y="-10" width="150" height="50" as="geometry" />
        </mxCell>
        <mxCell id="2ej9m6dImVk6T2aK4AlW-35" value="接口7：点击某条新闻操作中的&lt;b&gt;编辑&lt;/b&gt;，显示该新闻内容和图片" style="rounded=1;whiteSpace=wrap;html=1;arcSize=48;fontSize=14;" vertex="1" parent="1">
          <mxGeometry x="800" y="210" width="200" height="50" as="geometry" />
        </mxCell>
        <mxCell id="2ej9m6dImVk6T2aK4AlW-36" value="接口2：点击某条新闻操作中的&lt;b&gt;删除&lt;/b&gt;，删除新闻" style="rounded=1;whiteSpace=wrap;html=1;arcSize=48;fontSize=14;" vertex="1" parent="1">
          <mxGeometry x="410" y="-180" width="180" height="50" as="geometry" />
        </mxCell>
        <mxCell id="2ej9m6dImVk6T2aK4AlW-37" value="接口3：点击某条新闻操作中的&lt;b&gt;发布&lt;/b&gt;，发布新闻" style="rounded=1;whiteSpace=wrap;html=1;arcSize=48;fontSize=14;" vertex="1" parent="1">
          <mxGeometry x="410" y="-100" width="170" height="50" as="geometry" />
        </mxCell>
        <mxCell id="2ej9m6dImVk6T2aK4AlW-55" value="搜索框（前端直接实现，不需要接口）" style="rounded=1;whiteSpace=wrap;html=1;" vertex="1" parent="1">
          <mxGeometry x="197" y="68" width="230" height="20" as="geometry" />
        </mxCell>
        <mxCell id="2ej9m6dImVk6T2aK4AlW-57" value="" style="endArrow=classic;html=1;rounded=0;exitX=0.727;exitY=-0.05;exitDx=0;exitDy=0;exitPerimeter=0;" edge="1" parent="1">
          <mxGeometry width="50" height="50" relative="1" as="geometry">
            <mxPoint x="561.04" y="111" as="sourcePoint" />
            <mxPoint x="1033" y="218" as="targetPoint" />
          </mxGeometry>
        </mxCell>
        <mxCell id="2ej9m6dImVk6T2aK4AlW-58" value="" style="endArrow=classic;html=1;rounded=0;" edge="1" parent="1">
          <mxGeometry width="50" height="50" relative="1" as="geometry">
            <mxPoint x="130" y="80" as="sourcePoint" />
            <mxPoint x="180" y="30" as="targetPoint" />
          </mxGeometry>
        </mxCell>
        <mxCell id="2ej9m6dImVk6T2aK4AlW-59" value="" style="endArrow=classic;html=1;rounded=0;dashed=1;dashPattern=8 8;" edge="1" parent="1">
          <mxGeometry width="50" height="50" relative="1" as="geometry">
            <mxPoint x="570" y="80" as="sourcePoint" />
            <mxPoint x="1040" y="80" as="targetPoint" />
          </mxGeometry>
        </mxCell>
        <mxCell id="2ej9m6dImVk6T2aK4AlW-61" value="" style="rounded=0;whiteSpace=wrap;html=1;" vertex="1" parent="1">
          <mxGeometry x="1050" y="64" width="610" height="370" as="geometry" />
        </mxCell>
        <mxCell id="2ej9m6dImVk6T2aK4AlW-62" value="" style="rounded=0;whiteSpace=wrap;html=1;fillColor=#dae8fc;strokeColor=#6c8ebf;" vertex="1" parent="1">
          <mxGeometry x="1050" y="64" width="90" height="370" as="geometry" />
        </mxCell>
        <mxCell id="2ej9m6dImVk6T2aK4AlW-63" value="" style="group;fillColor=#dae8fc;strokeColor=#6c8ebf;" vertex="1" connectable="0" parent="1">
          <mxGeometry x="1050" y="64" width="90" height="270" as="geometry" />
        </mxCell>
        <mxCell id="2ej9m6dImVk6T2aK4AlW-64" value="党建新闻" style="rounded=0;whiteSpace=wrap;html=1;fillColor=#647687;strokeColor=#314354;fontColor=#ffffff;" vertex="1" parent="2ej9m6dImVk6T2aK4AlW-63">
          <mxGeometry width="90" height="30" as="geometry" />
        </mxCell>
        <mxCell id="2ej9m6dImVk6T2aK4AlW-65" value="支部风采" style="rounded=0;whiteSpace=wrap;html=1;" vertex="1" parent="2ej9m6dImVk6T2aK4AlW-63">
          <mxGeometry y="30" width="90" height="30" as="geometry" />
        </mxCell>
        <mxCell id="2ej9m6dImVk6T2aK4AlW-66" value="热门问题" style="rounded=0;whiteSpace=wrap;html=1;" vertex="1" parent="2ej9m6dImVk6T2aK4AlW-63">
          <mxGeometry y="60" width="90" height="30" as="geometry" />
        </mxCell>
        <mxCell id="2ej9m6dImVk6T2aK4AlW-67" value="支部事件" style="rounded=0;whiteSpace=wrap;html=1;" vertex="1" parent="2ej9m6dImVk6T2aK4AlW-63">
          <mxGeometry y="133" width="90" height="30" as="geometry" />
        </mxCell>
        <mxCell id="2ej9m6dImVk6T2aK4AlW-68" value="队伍建设" style="rounded=0;whiteSpace=wrap;html=1;" vertex="1" parent="2ej9m6dImVk6T2aK4AlW-63">
          <mxGeometry y="103" width="90" height="30" as="geometry" />
        </mxCell>
        <mxCell id="2ej9m6dImVk6T2aK4AlW-69" value="活动进度" style="rounded=0;whiteSpace=wrap;html=1;" vertex="1" parent="2ej9m6dImVk6T2aK4AlW-63">
          <mxGeometry y="163" width="90" height="30" as="geometry" />
        </mxCell>
        <mxCell id="2ej9m6dImVk6T2aK4AlW-70" value="工作计划" style="rounded=0;whiteSpace=wrap;html=1;" vertex="1" parent="2ej9m6dImVk6T2aK4AlW-63">
          <mxGeometry y="193" width="90" height="30" as="geometry" />
        </mxCell>
        <mxCell id="2ej9m6dImVk6T2aK4AlW-71" value="党费缴纳" style="rounded=0;whiteSpace=wrap;html=1;" vertex="1" parent="2ej9m6dImVk6T2aK4AlW-63">
          <mxGeometry y="241" width="90" height="30" as="geometry" />
        </mxCell>
        <mxCell id="2ej9m6dImVk6T2aK4AlW-72" value="纪检信箱" style="rounded=0;whiteSpace=wrap;html=1;" vertex="1" parent="2ej9m6dImVk6T2aK4AlW-63">
          <mxGeometry y="271" width="90" height="30" as="geometry" />
        </mxCell>
        <mxCell id="2ej9m6dImVk6T2aK4AlW-73" value="编辑框" style="rounded=0;whiteSpace=wrap;html=1;" vertex="1" parent="1">
          <mxGeometry x="1160" y="148" width="230" height="266" as="geometry" />
        </mxCell>
        <mxCell id="2ej9m6dImVk6T2aK4AlW-74" value="接口5：保存，发布状态为草稿" style="rounded=1;whiteSpace=wrap;html=1;arcSize=48;fontSize=14;" vertex="1" parent="1">
          <mxGeometry x="1250" y="-60" width="200" height="50" as="geometry" />
        </mxCell>
        <mxCell id="2ej9m6dImVk6T2aK4AlW-75" value="上传的图片展示" style="rounded=0;whiteSpace=wrap;html=1;" vertex="1" parent="1">
          <mxGeometry x="1400" y="148" width="230" height="266" as="geometry" />
        </mxCell>
        <mxCell id="2ej9m6dImVk6T2aK4AlW-76" value="新闻标题" style="rounded=0;whiteSpace=wrap;html=1;" vertex="1" parent="1">
          <mxGeometry x="1160" y="110" width="150" height="29" as="geometry" />
        </mxCell>
        <mxCell id="2ej9m6dImVk6T2aK4AlW-77" value="发表时间" style="rounded=0;whiteSpace=wrap;html=1;" vertex="1" parent="1">
          <mxGeometry x="1330" y="110" width="130" height="29" as="geometry" />
        </mxCell>
        <mxCell id="2ej9m6dImVk6T2aK4AlW-78" value="来源" style="rounded=0;whiteSpace=wrap;html=1;" vertex="1" parent="1">
          <mxGeometry x="1475" y="110" width="155" height="29" as="geometry" />
        </mxCell>
        <mxCell id="2ej9m6dImVk6T2aK4AlW-81" value="上传新闻按钮" style="ellipse;whiteSpace=wrap;html=1;fillColor=#ffe6cc;strokeColor=#d79b00;" vertex="1" parent="1">
          <mxGeometry x="470" y="66.75" width="90" height="22.5" as="geometry" />
        </mxCell>
        <mxCell id="2ej9m6dImVk6T2aK4AlW-82" value="保存为草稿" style="ellipse;whiteSpace=wrap;html=1;fillColor=#ffe6cc;strokeColor=#d79b00;" vertex="1" parent="1">
          <mxGeometry x="1345" y="80" width="90" height="22.5" as="geometry" />
        </mxCell>
        <mxCell id="2ej9m6dImVk6T2aK4AlW-83" value="保存并发布" style="ellipse;whiteSpace=wrap;html=1;fillColor=#ffe6cc;strokeColor=#d79b00;" vertex="1" parent="1">
          <mxGeometry x="1480" y="80" width="90" height="22.5" as="geometry" />
        </mxCell>
        <mxCell id="2ej9m6dImVk6T2aK4AlW-84" value="" style="endArrow=classic;html=1;rounded=0;entryX=0.5;entryY=1;entryDx=0;entryDy=0;exitX=0.5;exitY=0;exitDx=0;exitDy=0;" edge="1" parent="1" source="2ej9m6dImVk6T2aK4AlW-82" target="2ej9m6dImVk6T2aK4AlW-74">
          <mxGeometry width="50" height="50" relative="1" as="geometry">
            <mxPoint x="1365" y="40" as="sourcePoint" />
            <mxPoint x="1415" y="-10" as="targetPoint" />
          </mxGeometry>
        </mxCell>
        <mxCell id="2ej9m6dImVk6T2aK4AlW-85" value="接口6：保存，发布状态为发布" style="rounded=1;whiteSpace=wrap;html=1;arcSize=48;fontSize=14;" vertex="1" parent="1">
          <mxGeometry x="1505" y="-60" width="200" height="50" as="geometry" />
        </mxCell>
        <mxCell id="2ej9m6dImVk6T2aK4AlW-86" value="" style="endArrow=classic;html=1;rounded=0;entryX=0.5;entryY=1;entryDx=0;entryDy=0;exitX=0.5;exitY=0;exitDx=0;exitDy=0;" edge="1" parent="1" source="2ej9m6dImVk6T2aK4AlW-83" target="2ej9m6dImVk6T2aK4AlW-85">
          <mxGeometry width="50" height="50" relative="1" as="geometry">
            <mxPoint x="1600" y="90" as="sourcePoint" />
            <mxPoint x="1560" as="targetPoint" />
          </mxGeometry>
        </mxCell>
        <mxCell id="2ej9m6dImVk6T2aK4AlW-87" value="接口4：点击某条新闻操作中的&lt;b&gt;下架&lt;/b&gt;，下架新闻" style="rounded=1;whiteSpace=wrap;html=1;arcSize=48;fontSize=14;" vertex="1" parent="1">
          <mxGeometry x="414" y="-20" width="170" height="50" as="geometry" />
        </mxCell>
        <mxCell id="2ej9m6dImVk6T2aK4AlW-88" value="上传图片" style="ellipse;whiteSpace=wrap;html=1;fillColor=#ffe6cc;strokeColor=#d79b00;" vertex="1" parent="1">
          <mxGeometry x="1220" y="80" width="90" height="22.5" as="geometry" />
        </mxCell>
        <mxCell id="2ej9m6dImVk6T2aK4AlW-92" value="图片随这两个接口一起上传" style="text;html=1;align=center;verticalAlign=middle;whiteSpace=wrap;rounded=0;fontSize=14;" vertex="1" parent="1">
          <mxGeometry x="1170" y="34" width="170" height="30" as="geometry" />
        </mxCell>
      </root>
    </mxGraphModel>
  </diagram>
</mxfile>
